<svg width="28" height="28" viewBox="0 0 28 28" fill="none" xmlns="http://www.w3.org/2000/svg">
<rect x="4.68164" y="4.8125" width="18.375" height="18.375" fill="#474848"/>
<path d="M22.75 3.5H5.25C4.78608 3.50069 4.34137 3.68529 4.01333 4.01333C3.68529 4.34137 3.50069 4.78608 3.5 5.25V22.75C3.50069 23.2139 3.68529 23.6586 4.01333 23.9867C4.34137 24.3147 4.78608 24.4993 5.25 24.5H22.75C23.2139 24.4993 23.6586 24.3147 23.9867 23.9867C24.3147 23.6586 24.4993 23.2139 24.5 22.75V5.25C24.4993 4.78608 24.3147 4.34137 23.9867 4.01333C23.6586 3.68529 23.2139 3.50069 22.75 3.5ZM15.75 5.25V8.75H12.25V5.25H15.75ZM5.25 22.75V5.25H10.5V10.5H17.5V5.25H22.75L22.7509 22.75H5.25Z" fill="#FBFBFB"/>
<path d="M7 15.75H12.25V17.5H7V15.75ZM7 19.25H15.75V21H7V19.25Z" fill="#FBFBFB"/>
</svg>
