<svg width="24" height="24" viewBox="0 0 24 24" fill="none" xmlns="http://www.w3.org/2000/svg">
<path d="M12.2693 11.2005V5.9505C12.2693 1.05517 12.3498 0.7005 13.4593 0.7005C14.9807 0.7005 18.6813 2.58175 19.9763 4.01383C21.1243 5.28375 22.7693 8.98967 22.7693 10.3068C22.7693 11.0436 21.8459 11.2005 17.5193 11.2005H12.2693Z" fill="#474848"/>
<path d="M0.263169 10.3751C0.704753 8.02308 2.94475 5.1175 5.53592 3.53725C6.51242 2.94167 7.90192 2.454 8.6235 2.45283C9.8905 2.4505 9.936 2.63833 9.936 7.86442V13.2789L13.436 16.7422C15.361 18.6473 16.936 20.5204 16.936 20.9048C16.936 21.2893 15.7588 22.0534 14.3198 22.6029C6.59525 25.5534 -1.29608 18.6882 0.263169 10.3751Z" fill="#474848"/>
<path d="M20.7137 20.3477C20.3858 20.4551 18.5565 18.9658 16.649 17.0385L13.1811 13.5338H18.5583C23.8153 13.5338 23.936 13.5648 23.936 14.9058C23.936 16.3298 21.7596 20.0053 20.7137 20.3477Z" fill="#474848"/>
</svg>
