<svg width="22" height="22" viewBox="0 0 22 22" fill="none" xmlns="http://www.w3.org/2000/svg">
<path fill-rule="evenodd" clip-rule="evenodd" d="M11.978 3.47716C9.14515 6.31078 8.71246 6.50137 7.22917 5.57527C5.83042 4.70221 5.4085 4.74449 4.27797 5.87579C3.03139 7.12237 3.08058 7.32217 5.17793 9.51098C6.39838 10.7852 7.77638 11.8274 8.23981 11.8274C9.33191 11.8274 17.1003 3.97133 17.1003 2.86694C17.1003 2.4035 16.6492 1.65032 16.0974 1.19227C15.3365 0.560525 14.3459 1.11005 11.978 3.47716ZM13.2645 10.6676L8.32051 15.6555L5.82505 13.2369C3.72769 11.2041 3.14053 10.9751 2.14526 11.8012C1.49354 12.3415 0.960938 13.1885 0.960938 13.6826C0.960938 14.7617 7.23225 21.0499 8.30821 21.0499C8.72399 21.0499 11.9234 18.1763 15.418 14.6633C21.5341 8.51573 21.7177 8.22829 20.3359 6.97787C19.5466 6.2639 18.745 5.67903 18.5544 5.67903C18.3646 5.67903 15.9836 7.92394 13.2645 10.6676Z" fill="#474848"/>
</svg>
