<svg width="24" height="26" viewBox="0 0 24 26" fill="none" xmlns="http://www.w3.org/2000/svg">
<path d="M12.0136 9.68048C11.196 9.68048 10.4304 9.99766 9.85073 10.5774C9.27378 11.157 8.95386 11.9227 8.95386 12.7402C8.95386 13.5578 9.27378 14.3234 9.85073 14.9031C10.4304 15.4801 11.196 15.8 12.0136 15.8C12.8312 15.8 13.5968 15.4801 14.1765 14.9031C14.7535 14.3234 15.0734 13.5578 15.0734 12.7402C15.0734 11.9227 14.7535 11.157 14.1765 10.5774C13.8934 10.292 13.5564 10.0658 13.1851 9.91186C12.8138 9.7579 12.4156 9.67925 12.0136 9.68048ZM23.2875 16.1199L21.4992 14.5914C21.5839 14.0719 21.6277 13.5414 21.6277 13.0137C21.6277 12.4859 21.5839 11.9527 21.4992 11.4359L23.2875 9.90743C23.4225 9.79178 23.5192 9.63775 23.5647 9.46582C23.6101 9.29389 23.6021 9.11221 23.5417 8.94493L23.5171 8.87383C23.025 7.4976 22.2876 6.22192 21.3406 5.1086L21.2914 5.05118C21.1764 4.91597 21.0231 4.81877 20.8518 4.7724C20.6804 4.72603 20.4991 4.73266 20.3316 4.79141L18.1113 5.58165C17.291 4.90899 16.3777 4.37852 15.3878 4.00938L14.9585 1.6879C14.9262 1.51301 14.8413 1.35212 14.7153 1.2266C14.5893 1.10108 14.4281 1.01687 14.2531 0.985162L14.1792 0.97149C12.7574 0.714459 11.2589 0.714459 9.83706 0.97149L9.76323 0.985162C9.58822 1.01687 9.42701 1.10108 9.301 1.2266C9.17499 1.35212 9.09015 1.51301 9.05776 1.6879L8.62573 4.02032C7.64526 4.3924 6.73189 4.92158 5.92144 5.58712L3.68472 4.79141C3.51728 4.73219 3.33579 4.72532 3.16435 4.77172C2.99292 4.81812 2.83966 4.91559 2.72495 5.05118L2.67573 5.1086C1.73044 6.2231 0.993194 7.49846 0.499171 8.87383L0.474562 8.94493C0.351515 9.28673 0.452687 9.66954 0.728859 9.90743L2.53901 11.4524C2.45425 11.9664 2.41323 12.4914 2.41323 13.0109C2.41323 13.5359 2.45425 14.0609 2.53901 14.5695L0.734327 16.1145C0.599237 16.2301 0.502552 16.3841 0.457127 16.5561C0.411702 16.728 0.419691 16.9097 0.48003 17.077L0.50464 17.1481C0.999562 18.5234 1.72964 19.7949 2.6812 20.9133L2.73042 20.9707C2.84541 21.1059 2.99867 21.2031 3.17 21.2495C3.34134 21.2959 3.5227 21.2892 3.69019 21.2305L5.92691 20.4348C6.74175 21.1047 7.64956 21.6352 8.6312 22.0016L9.06323 24.334C9.09562 24.5089 9.18046 24.6698 9.30647 24.7953C9.43248 24.9208 9.59369 25.005 9.7687 25.0367L9.84253 25.0504C11.2784 25.3088 12.7489 25.3088 14.1847 25.0504L14.2585 25.0367C14.4336 25.005 14.5948 24.9208 14.7208 24.7953C14.8468 24.6698 14.9316 24.5089 14.964 24.334L15.3933 22.0125C16.3832 21.6406 17.2964 21.1129 18.1167 20.4402L20.3371 21.2305C20.5045 21.2897 20.686 21.2966 20.8574 21.2502C21.0289 21.2038 21.1821 21.1063 21.2968 20.9707L21.346 20.9133C22.2976 19.7895 23.0277 18.5234 23.5226 17.1481L23.5472 17.077C23.6648 16.7379 23.5636 16.3578 23.2875 16.1199ZM12.0136 17.5473C9.35855 17.5473 7.20659 15.3953 7.20659 12.7402C7.20659 10.0852 9.35855 7.93321 12.0136 7.93321C14.6687 7.93321 16.8207 10.0852 16.8207 12.7402C16.8207 15.3953 14.6687 17.5473 12.0136 17.5473Z" fill="#474848"/>
</svg>
