<svg width="24" height="18" viewBox="0 0 24 18" fill="none" xmlns="http://www.w3.org/2000/svg">
<path fill-rule="evenodd" clip-rule="evenodd" d="M10.2213 1.33758C9.80941 1.6126 9.09801 2.54797 8.64123 3.41525C6.92163 6.67881 11.2159 10.0969 14.4073 8.0056C16.4346 6.67744 16.6504 3.59022 14.8307 1.94346C13.5236 0.760303 11.4868 0.492754 10.2213 1.33758ZM2.78466 3.80803C1.41701 4.80806 1.78939 6.7285 3.47495 7.37591C4.68806 7.84086 6.54517 6.51407 6.54517 5.18251C6.54517 3.64808 4.18362 2.78485 2.78466 3.80803ZM18.935 3.67598C16.9186 5.69239 19.0235 8.6748 21.4034 7.17372C22.9515 6.19751 23.0876 5.20293 21.8439 3.95919C20.5293 2.64464 20.0167 2.59426 18.935 3.67598ZM1.07595 10.391C0.264486 11.907 1.18691 13.7512 2.75606 13.7512C3.49741 13.7512 6.54517 10.214 6.54517 9.35349C6.54517 9.1513 5.48387 8.98589 4.18634 8.98589C2.5001 8.98589 1.61307 9.3862 1.07595 10.391ZM18.1181 9.54209C18.1181 9.89336 18.5776 10.5619 19.1392 11.0282C19.7008 11.4945 20.1604 12.3189 20.1604 12.8608C20.1604 13.4932 20.709 13.7682 21.6921 13.6287C22.8916 13.4578 23.2238 12.9683 23.2238 11.3686C23.2238 9.49987 23.0066 9.30858 20.6709 9.11524C19.2672 8.99883 18.1181 9.19081 18.1181 9.54209ZM6.26265 11.8328C3.57025 15.6764 5.28713 17.155 12.4439 17.155C17.391 17.155 18.1589 16.9889 18.8056 15.7806C19.3502 14.7635 19.3101 13.9221 18.6525 12.547C17.8138 10.7913 17.4727 10.6769 12.5529 10.4897C7.79504 10.3093 7.24771 10.4264 6.26265 11.8328Z" fill="#FBFBFB"/>
<path fill-rule="evenodd" clip-rule="evenodd" d="M10.2213 1.33758C9.80941 1.6126 9.09801 2.54797 8.64123 3.41525C6.92163 6.67881 11.2159 10.0969 14.4073 8.0056C16.4346 6.67744 16.6504 3.59022 14.8307 1.94346C13.5236 0.760303 11.4868 0.492754 10.2213 1.33758ZM2.78466 3.80803C1.41701 4.80806 1.78939 6.7285 3.47495 7.37591C4.68806 7.84086 6.54517 6.51407 6.54517 5.18251C6.54517 3.64808 4.18362 2.78485 2.78466 3.80803ZM18.935 3.67598C16.9186 5.69239 19.0235 8.6748 21.4034 7.17372C22.9515 6.19751 23.0876 5.20293 21.8439 3.95919C20.5293 2.64464 20.0167 2.59426 18.935 3.67598ZM1.07595 10.391C0.264486 11.907 1.18691 13.7512 2.75606 13.7512C3.49741 13.7512 6.54517 10.214 6.54517 9.35349C6.54517 9.1513 5.48387 8.98589 4.18634 8.98589C2.5001 8.98589 1.61307 9.3862 1.07595 10.391ZM18.1181 9.54209C18.1181 9.89336 18.5776 10.5619 19.1392 11.0282C19.7008 11.4945 20.1604 12.3189 20.1604 12.8608C20.1604 13.4932 20.709 13.7682 21.6921 13.6287C22.8916 13.4578 23.2238 12.9683 23.2238 11.3686C23.2238 9.49987 23.0066 9.30858 20.6709 9.11524C19.2672 8.99883 18.1181 9.19081 18.1181 9.54209ZM6.26265 11.8328C3.57025 15.6764 5.28713 17.155 12.4439 17.155C17.391 17.155 18.1589 16.9889 18.8056 15.7806C19.3502 14.7635 19.3101 13.9221 18.6525 12.547C17.8138 10.7913 17.4727 10.6769 12.5529 10.4897C7.79504 10.3093 7.24771 10.4264 6.26265 11.8328Z" fill="#474848"/>
</svg>
