<svg width="24" height="20" viewBox="0 0 24 20" fill="none" xmlns="http://www.w3.org/2000/svg">
<path d="M21.6167 10.5833L23.25 12.2283L15.6317 19.9167L11.5833 15.8333L13.2167 14.1883L15.6317 16.615L21.6167 10.5833ZM8.66667 15.8333L12.1667 19.3333H0.5V17C0.5 14.4217 4.67667 12.3333 9.83333 12.3333L12.0383 12.4617L8.66667 15.8333ZM9.83333 0.666656C11.071 0.666656 12.258 1.15832 13.1332 2.03349C14.0083 2.90866 14.5 4.09565 14.5 5.33332C14.5 6.571 14.0083 7.75799 13.1332 8.63315C12.258 9.50832 11.071 9.99999 9.83333 9.99999C8.59566 9.99999 7.40867 9.50832 6.5335 8.63315C5.65833 7.75799 5.16667 6.571 5.16667 5.33332C5.16667 4.09565 5.65833 2.90866 6.5335 2.03349C7.40867 1.15832 8.59566 0.666656 9.83333 0.666656Z" fill="#474848"/>
</svg>
