<svg width="32" height="32" viewBox="0 0 32 32" fill="none" xmlns="http://www.w3.org/2000/svg">
<path d="M11.5003 11.3319H5.50033C5.1467 11.3319 4.80756 11.1915 4.55752 10.9414C4.30747 10.6914 4.16699 10.3522 4.16699 9.99862V3.99862C4.16699 3.64499 4.30747 3.30586 4.55752 3.05581C4.80756 2.80576 5.1467 2.66528 5.50033 2.66528C5.85395 2.66528 6.19309 2.80576 6.44313 3.05581C6.69318 3.30586 6.83366 3.64499 6.83366 3.99862V8.66528H11.5003C11.8539 8.66528 12.1931 8.80576 12.4431 9.05581C12.6932 9.30586 12.8337 9.64499 12.8337 9.99862C12.8337 10.3522 12.6932 10.6914 12.4431 10.9414C12.1931 11.1915 11.8539 11.3319 11.5003 11.3319Z" fill="#474848"/>
<path d="M28.0002 17.332C27.6466 17.332 27.3074 17.1915 27.0574 16.9414C26.8073 16.6914 26.6669 16.3523 26.6669 15.9986C26.6679 13.6513 25.8941 11.3694 24.4657 9.50677C23.0372 7.64419 21.0339 6.30515 18.7666 5.69746C16.4994 5.08977 14.095 5.2474 11.9264 6.14589C9.75793 7.04438 7.9466 8.63349 6.77353 10.6666C6.59637 10.9727 6.30488 11.1958 5.96318 11.287C5.62149 11.3781 5.25759 11.3298 4.95153 11.1526C4.64547 10.9755 4.42232 10.684 4.33118 10.3423C4.24004 10.0006 4.28837 9.63669 4.46553 9.33063C5.93254 6.78961 8.19711 4.80376 10.9079 3.68115C13.6188 2.55853 16.6243 2.36192 19.4583 3.12181C22.2923 3.88171 24.7963 5.55562 26.5818 7.88387C28.3673 10.2121 29.3346 13.0645 29.3335 15.9986C29.3335 16.3523 29.1931 16.6914 28.943 16.9414C28.693 17.1915 28.3538 17.332 28.0002 17.332ZM26.5002 29.332C26.1466 29.332 25.8074 29.1915 25.5574 28.9414C25.3073 28.6914 25.1669 28.3523 25.1669 27.9986V23.332H20.5002C20.1466 23.332 19.8074 23.1915 19.5574 22.9414C19.3073 22.6914 19.1669 22.3523 19.1669 21.9986C19.1669 21.645 19.3073 21.3059 19.5574 21.0558C19.8074 20.8058 20.1466 20.6653 20.5002 20.6653H26.5002C26.8538 20.6653 27.193 20.8058 27.443 21.0558C27.6931 21.3059 27.8335 21.645 27.8335 21.9986V27.9986C27.8335 28.3523 27.6931 28.6914 27.443 28.9414C27.193 29.1915 26.8538 29.332 26.5002 29.332Z" fill="#474848"/>
<path d="M16.0003 29.332C12.4654 29.3277 9.07648 27.9216 6.57691 25.422C4.07734 22.9225 2.67123 19.5335 2.66699 15.9986C2.66699 15.645 2.80747 15.3059 3.05752 15.0558C3.30756 14.8058 3.6467 14.6653 4.00033 14.6653C4.35395 14.6653 4.69309 14.8058 4.94313 15.0558C5.19318 15.3059 5.33366 15.645 5.33366 15.9986C5.33264 18.3459 6.1064 20.6279 7.53487 22.4905C8.96333 24.3531 10.9666 25.6921 13.2339 26.2998C15.5011 26.9075 17.9056 26.7498 20.0741 25.8514C22.2426 24.9529 24.0539 23.3638 25.227 21.3306C25.3147 21.1791 25.4314 21.0463 25.5705 20.9398C25.7095 20.8334 25.8682 20.7554 26.0373 20.7103C26.2065 20.6651 26.3829 20.6538 26.5565 20.6768C26.7301 20.6999 26.8974 20.7569 27.049 20.8446C27.2005 20.9323 27.3333 21.0491 27.4398 21.1881C27.5462 21.3271 27.6242 21.4858 27.6693 21.655C27.7145 21.8242 27.7258 22.0006 27.7028 22.1742C27.6797 22.3477 27.6227 22.5151 27.535 22.6666C26.3623 24.6886 24.6803 26.368 22.6565 27.5374C20.6327 28.7069 18.3377 29.3256 16.0003 29.332Z" fill="#474848"/>
</svg>
