<svg width="24" height="28" viewBox="0 0 24 28" fill="none" xmlns="http://www.w3.org/2000/svg">
<path d="M12 3.99863C9.62663 3.99863 7.30655 4.70241 5.33316 6.02099C3.35977 7.33957 1.8217 9.21371 0.913451 11.4064C0.00519943 13.5991 -0.232441 16.0119 0.230582 18.3397C0.693605 20.6675 1.83649 22.8057 3.51472 24.4839C5.19295 26.1621 7.33115 27.305 9.65892 27.7681C11.9867 28.2311 14.3995 27.9934 16.5922 27.0852C18.7849 26.1769 20.6591 24.6389 21.9776 22.6655C23.2962 20.6921 24 18.372 24 15.9986C23.9964 12.8171 22.7309 9.76701 20.4813 7.51737C18.2316 5.26772 15.1815 4.00227 12 3.99863ZM12 25.9986C10.0222 25.9986 8.08879 25.4121 6.4443 24.3133C4.79981 23.2145 3.51809 21.6527 2.76121 19.8255C2.00433 17.9982 1.8063 15.9875 2.19215 14.0477C2.578 12.1079 3.53041 10.3261 4.92894 8.92756C6.32746 7.52903 8.10929 6.57663 10.0491 6.19077C11.9889 5.80492 13.9996 6.00296 15.8268 6.75983C17.6541 7.51671 19.2159 8.79843 20.3147 10.4429C21.4135 12.0874 22 14.0208 22 15.9986C21.997 18.6499 20.9425 21.1917 19.0678 23.0664C17.1931 24.9411 14.6513 25.9957 12 25.9986ZM17.7075 10.2911C17.8005 10.384 17.8742 10.4943 17.9246 10.6157C17.9749 10.7371 18.0008 10.8672 18.0008 10.9986C18.0008 11.13 17.9749 11.2602 17.9246 11.3816C17.8742 11.503 17.8005 11.6133 17.7075 11.7061L12.7075 16.7061C12.6146 16.799 12.5043 16.8727 12.3829 16.923C12.2615 16.9733 12.1314 16.9992 12 16.9992C11.8686 16.9992 11.7385 16.9733 11.6171 16.923C11.4957 16.8727 11.3854 16.799 11.2925 16.7061C11.1996 16.6132 11.1259 16.5029 11.0756 16.3815C11.0253 16.2601 10.9994 16.13 10.9994 15.9986C10.9994 15.8672 11.0253 15.7371 11.0756 15.6157C11.1259 15.4943 11.1996 15.384 11.2925 15.2911L16.2925 10.2911C16.3854 10.1982 16.4957 10.1244 16.6171 10.0741C16.7385 10.0237 16.8686 9.99784 17 9.99784C17.1314 9.99784 17.2615 10.0237 17.3829 10.0741C17.5043 10.1244 17.6146 10.1982 17.7075 10.2911ZM8.00001 0.998627C8.00001 0.73341 8.10536 0.479056 8.2929 0.29152C8.48044 0.103984 8.73479 -0.00137329 9.00001 -0.00137329H15C15.2652 -0.00137329 15.5196 0.103984 15.7071 0.29152C15.8946 0.479056 16 0.73341 16 0.998627C16 1.26384 15.8946 1.5182 15.7071 1.70573C15.5196 1.89327 15.2652 1.99863 15 1.99863H9.00001C8.73479 1.99863 8.48044 1.89327 8.2929 1.70573C8.10536 1.5182 8.00001 1.26384 8.00001 0.998627Z" fill="#474848"/>
</svg>
