<svg width="23" height="21" viewBox="0 0 23 21" fill="none" xmlns="http://www.w3.org/2000/svg">
<path fill-rule="evenodd" clip-rule="evenodd" d="M3 18.75C2.80109 18.75 2.61032 18.671 2.46967 18.5303C2.32902 18.3897 2.25 18.1989 2.25 18V3C2.25 2.80109 2.32902 2.61032 2.46967 2.46967C2.61032 2.32902 2.80109 2.25 3 2.25H16.875C17.1734 2.25 17.4595 2.13147 17.6705 1.9205C17.8815 1.70952 18 1.42337 18 1.125C18 0.826631 17.8815 0.540483 17.6705 0.329505C17.4595 0.118526 17.1734 4.44604e-09 16.875 0H3C2.20435 0 1.44129 0.316071 0.87868 0.87868C0.316071 1.44129 0 2.20435 0 3V18C0 18.7956 0.316071 19.5587 0.87868 20.1213C1.44129 20.6839 2.20435 21 3 21H18C18.7956 21 19.5587 20.6839 20.1213 20.1213C20.6839 19.5587 21 18.7956 21 18V13.125C21 12.8266 20.8815 12.5405 20.6705 12.3295C20.4595 12.1185 20.1734 12 19.875 12C19.5766 12 19.2905 12.1185 19.0795 12.3295C18.8685 12.5405 18.75 12.8266 18.75 13.125V18C18.75 18.1989 18.671 18.3897 18.5303 18.5303C18.3897 18.671 18.1989 18.75 18 18.75H3ZM22.17 5.52C22.3687 5.30674 22.4769 5.02467 22.4718 4.73322C22.4666 4.44176 22.3486 4.16369 22.1424 3.95757C21.9363 3.75145 21.6582 3.63338 21.3668 3.62824C21.0753 3.6231 20.7933 3.73128 20.58 3.93L12.243 12.2655L9.4335 9.3615C9.331 9.25439 9.20833 9.1686 9.07256 9.10906C8.93679 9.04952 8.79059 9.0174 8.64236 9.01455C8.49414 9.0117 8.34681 9.03817 8.20885 9.09245C8.07089 9.14673 7.94502 9.22774 7.83847 9.33083C7.73192 9.43391 7.6468 9.55704 7.588 9.69314C7.5292 9.82923 7.49788 9.97561 7.49584 10.1238C7.4938 10.2721 7.52107 10.4193 7.57611 10.5569C7.63114 10.6946 7.71283 10.82 7.8165 10.926L11.421 14.652C11.5247 14.7596 11.6488 14.8454 11.7861 14.9045C11.9233 14.9635 12.0709 14.9947 12.2204 14.9961C12.3698 14.9975 12.518 14.9691 12.6563 14.9126C12.7946 14.8561 12.9203 14.7726 13.026 14.667L22.17 5.52Z" fill="#474848"/>
</svg>
