<svg width="26" height="20" viewBox="0 0 26 20" fill="none" xmlns="http://www.w3.org/2000/svg">
<path fill-rule="evenodd" clip-rule="evenodd" d="M10.9672 1.24294C10.4965 1.55725 9.68345 2.62624 9.1614 3.61742C7.19615 7.34721 12.1038 11.2536 15.7512 8.86353C18.0681 7.34563 18.3147 3.81738 16.2351 1.93538C14.7413 0.583194 12.4135 0.277425 10.9672 1.24294ZM2.46818 4.06631C0.905158 5.20921 1.33073 7.404 3.25708 8.14388C4.6435 8.67526 6.76591 7.15893 6.76591 5.63715C6.76591 3.88351 4.06699 2.89696 2.46818 4.06631ZM20.9257 3.9154C18.6212 6.21987 21.0268 9.62833 23.7468 7.91282C25.516 6.79715 25.6716 5.66049 24.2501 4.23906C22.7478 2.73673 22.162 2.67914 20.9257 3.9154ZM0.515373 11.5897C-0.412015 13.3223 0.642187 15.4299 2.4355 15.4299C3.28275 15.4299 6.76591 11.3874 6.76591 10.404C6.76591 10.1729 5.55299 9.98387 4.0701 9.98387C2.14297 9.98387 1.12922 10.4414 0.515373 11.5897ZM19.9921 10.6195C19.9921 11.021 20.5172 11.785 21.1591 12.3179C21.801 12.8508 22.3261 13.793 22.3261 14.4123C22.3261 15.1351 22.9532 15.4494 24.0766 15.2899C25.4475 15.0946 25.8272 14.5352 25.8272 12.7069C25.8272 10.5713 25.579 10.3526 22.9096 10.1317C21.3054 9.99865 19.9921 10.2181 19.9921 10.6195ZM6.44303 13.2375C3.366 17.6302 5.32815 19.32 13.5074 19.32C19.1612 19.32 20.0388 19.1302 20.7779 17.7492C21.4003 16.5869 21.3544 15.6252 20.6028 14.0537C19.6443 12.0472 19.2545 11.9164 13.6319 11.7025C8.19434 11.4963 7.56881 11.6301 6.44303 13.2375Z" fill="#474848"/>
</svg>
