<svg width="32" height="32" viewBox="0 0 32 32" fill="none" xmlns="http://www.w3.org/2000/svg">
<path fill-rule="evenodd" clip-rule="evenodd" d="M17.5276 4.24556C13.1013 8.67308 12.4252 8.97087 10.1076 7.52385C7.92205 6.15969 7.26279 6.22576 5.49634 7.99341C3.54856 9.94118 3.62542 10.2534 6.90253 13.6734C8.80948 15.6644 10.9626 17.2928 11.6867 17.2928C13.3931 17.2928 25.5313 5.01769 25.5313 3.29207C25.5313 2.56796 24.8264 1.39111 23.9642 0.675407C22.7753 -0.311691 21.2275 0.546943 17.5276 4.24556ZM19.5379 15.4807L11.8128 23.2742L7.91365 19.4951C4.63653 16.3189 3.71908 15.961 2.16398 17.2519C1.14567 18.0961 0.313477 19.4195 0.313477 20.1916C0.313477 21.8776 10.1124 31.7029 11.7936 31.7029C12.4432 31.7029 17.4424 27.213 22.9026 21.7239C32.459 12.1183 32.746 11.6692 30.5869 9.71541C29.3536 8.59982 28.1011 7.68598 27.8033 7.68598C27.5067 7.68598 23.7865 11.1937 19.5379 15.4807Z" fill="#474848"/>
</svg>
