<svg width="16" height="18" viewBox="0 0 16 18" fill="none" xmlns="http://www.w3.org/2000/svg">
<path d="M4.31465 9.00636C4.29759 10.6106 4.56193 11.4862 5.05407 11.987C5.545 12.4867 6.40875 12.7617 8.0004 12.7617C9.5918 12.7617 10.4459 12.4868 10.9323 11.9884C11.4227 11.4861 11.6861 10.6082 11.6861 8.99998C11.6861 7.3918 11.4227 6.5139 10.9323 6.01151C10.4459 5.5132 9.5918 5.23826 8.0004 5.23826C6.40926 5.23826 5.56487 5.51313 5.0829 6.0101C4.59418 6.51403 4.3318 7.3942 4.31465 9.00636Z" stroke="#474848" stroke-width="1.2" stroke-linecap="round" stroke-linejoin="round"/>
<path d="M8 1.91223V3.00266" stroke="#474848" stroke-width="1.2" stroke-linecap="round"/>
<path d="M8 14.9974V16.0878" stroke="#474848" stroke-width="1.2" stroke-linecap="round"/>
<path d="M14.9639 9L13.8924 9" stroke="#474848" stroke-width="1.2" stroke-linecap="round"/>
<path d="M2.10742 9L1.03599 9" stroke="#474848" stroke-width="1.2" stroke-linecap="round"/>
<path d="M2.64258 3.54785L3.40019 4.3189" stroke="#474848" stroke-width="1.2" stroke-linecap="round"/>
<path d="M2.64258 14.6779L3.40019 13.9069" stroke="#474848" stroke-width="1.2" stroke-linecap="round"/>
<path d="M13.5791 3.54785L12.8215 4.3189" stroke="#474848" stroke-width="1.2" stroke-linecap="round"/>
<path d="M13.5791 14.6779L12.8215 13.9069" stroke="#474848" stroke-width="1.2" stroke-linecap="round"/>
</svg>
