<svg width="14" height="15" viewBox="0 0 14 15" fill="none" xmlns="http://www.w3.org/2000/svg">
<path d="M9.25062 13.2499C9.25074 13.6283 9.10781 13.9928 8.8505 14.2703C8.59318 14.5478 8.24048 14.7177 7.86312 14.7461L7.75062 14.7499H6.25062C5.87219 14.75 5.50769 14.6071 5.23021 14.3498C4.95272 14.0924 4.78275 13.7397 4.75437 13.3624L4.75062 13.2499H9.25062ZM7.00062 0.499878C8.36185 0.499855 9.66988 1.02855 10.6488 1.97443C11.6277 2.92032 12.2009 4.20944 12.2476 5.56988L12.2506 5.74988V8.57288L13.6171 11.3059C13.6768 11.4251 13.7066 11.5571 13.7041 11.6904C13.7016 11.8237 13.6668 11.9544 13.6028 12.0713C13.5387 12.1882 13.4472 12.2879 13.3362 12.3618C13.2252 12.4356 13.098 12.4815 12.9654 12.4954L12.8791 12.4999H1.12212C0.988742 12.4999 0.857344 12.4676 0.739184 12.4057C0.621025 12.3439 0.519628 12.2543 0.443682 12.1446C0.367735 12.035 0.319504 11.9086 0.303122 11.7762C0.28674 11.6438 0.302694 11.5095 0.349619 11.3846L0.384119 11.3059L1.75062 8.57288V5.74988C1.75062 4.35749 2.30374 3.02213 3.28831 2.03757C4.27287 1.053 5.60823 0.499878 7.00062 0.499878Z" fill="#474848"/>
</svg>
